<svg width="109" height="23" viewBox="0 0 109 23" fill="none" xmlns="http://www.w3.org/2000/svg">
<path d="M0.256 18V1.2H2.824L13.36 14.136H12.088V1.2H15.184V18H12.616L2.08 5.064H3.352V18H0.256ZM25.4217 18.168C23.9977 18.168 22.7497 17.888 21.6777 17.328C20.6217 16.752 19.7977 15.968 19.2057 14.976C18.6297 13.984 18.3417 12.856 18.3417 11.592C18.3417 10.312 18.6217 9.184 19.1817 8.208C19.7577 7.216 20.5417 6.44 21.5337 5.88C22.5417 5.32 23.6857 5.04 24.9657 5.04C26.2137 5.04 27.3257 5.312 28.3017 5.856C29.2777 6.4 30.0457 7.168 30.6057 8.16C31.1657 9.152 31.4457 10.32 31.4457 11.664C31.4457 11.792 31.4377 11.936 31.4217 12.096C31.4217 12.256 31.4137 12.408 31.3977 12.552H20.7177V10.56H29.8137L28.6377 11.184C28.6537 10.448 28.5017 9.8 28.1817 9.24C27.8617 8.68 27.4217 8.24 26.8617 7.92C26.3177 7.6 25.6857 7.44 24.9657 7.44C24.2297 7.44 23.5817 7.6 23.0217 7.92C22.4777 8.24 22.0457 8.688 21.7257 9.264C21.4217 9.824 21.2697 10.488 21.2697 11.256V11.736C21.2697 12.504 21.4457 13.184 21.7977 13.776C22.1497 14.368 22.6457 14.824 23.2857 15.144C23.9257 15.464 24.6617 15.624 25.4937 15.624C26.2137 15.624 26.8617 15.512 27.4377 15.288C28.0137 15.064 28.5257 14.712 28.9737 14.232L30.5817 16.08C30.0057 16.752 29.2777 17.272 28.3977 17.64C27.5337 17.992 26.5417 18.168 25.4217 18.168ZM32.2238 18L37.8638 10.656L37.8158 12.264L32.4398 5.184H35.7758L39.5438 10.224H38.2718L42.0638 5.184H45.3038L39.8798 12.264L39.9038 10.656L45.5198 18H42.1358L38.1758 12.648L39.4238 12.816L35.5358 18H32.2238ZM52.5576 18.168C51.1496 18.168 50.0616 17.808 49.2936 17.088C48.5256 16.352 48.1416 15.272 48.1416 13.848V2.352H51.1416V13.776C51.1416 14.384 51.2936 14.856 51.5976 15.192C51.9176 15.528 52.3576 15.696 52.9176 15.696C53.5896 15.696 54.1496 15.52 54.5976 15.168L55.4376 17.304C55.0856 17.592 54.6536 17.808 54.1416 17.952C53.6296 18.096 53.1016 18.168 52.5576 18.168ZM46.0296 7.68V5.28H54.5736V7.68H46.0296Z" fill="#FFFAFA"/>
<path d="M58.1935 18V1.2H65.1055C66.5935 1.2 67.8655 1.44 68.9215 1.92C69.9935 2.4 70.8175 3.088 71.3935 3.984C71.9695 4.88 72.2575 5.944 72.2575 7.176C72.2575 8.408 71.9695 9.472 71.3935 10.368C70.8175 11.264 69.9935 11.952 68.9215 12.432C67.8655 12.912 66.5935 13.152 65.1055 13.152H59.9215L61.3135 11.688V18H58.1935ZM61.3135 12.024L59.9215 10.512H64.9615C66.3375 10.512 67.3695 10.224 68.0575 9.648C68.7615 9.056 69.1135 8.232 69.1135 7.176C69.1135 6.104 68.7615 5.28 68.0575 4.704C67.3695 4.128 66.3375 3.84 64.9615 3.84H59.9215L61.3135 2.304V12.024ZM75.3196 18V0.191999H78.3196V18H75.3196ZM90.1531 18V15.408L89.9851 14.856V10.32C89.9851 9.44 89.7211 8.76 89.1931 8.28C88.6651 7.784 87.8651 7.536 86.7931 7.536C86.0731 7.536 85.3611 7.648 84.6571 7.872C83.9691 8.096 83.3851 8.408 82.9051 8.808L81.7291 6.624C82.4171 6.096 83.2331 5.704 84.1771 5.448C85.1371 5.176 86.1291 5.04 87.1531 5.04C89.0091 5.04 90.4411 5.488 91.4491 6.384C92.4731 7.264 92.9851 8.632 92.9851 10.488V18H90.1531ZM86.1211 18.168C85.1611 18.168 84.3211 18.008 83.6011 17.688C82.8811 17.352 82.3211 16.896 81.9211 16.32C81.5371 15.728 81.3451 15.064 81.3451 14.328C81.3451 13.608 81.5131 12.96 81.8491 12.384C82.2011 11.808 82.7691 11.352 83.5531 11.016C84.3371 10.68 85.3771 10.512 86.6731 10.512H90.3931V12.504H86.8891C85.8651 12.504 85.1771 12.672 84.8251 13.008C84.4731 13.328 84.2971 13.728 84.2971 14.208C84.2971 14.752 84.5131 15.184 84.9451 15.504C85.3771 15.824 85.9771 15.984 86.7451 15.984C87.4811 15.984 88.1371 15.816 88.7131 15.48C89.3051 15.144 89.7291 14.648 89.9851 13.992L90.4891 15.792C90.2011 16.544 89.6811 17.128 88.9291 17.544C88.1931 17.96 87.2571 18.168 86.1211 18.168ZM97.6568 22.824C97.0328 22.824 96.4088 22.72 95.7848 22.512C95.1608 22.304 94.6408 22.016 94.2248 21.648L95.4248 19.44C95.7288 19.712 96.0728 19.928 96.4568 20.088C96.8408 20.248 97.2328 20.328 97.6328 20.328C98.1768 20.328 98.6168 20.192 98.9528 19.92C99.2888 19.648 99.6008 19.192 99.8888 18.552L100.633 16.872L100.873 16.512L105.721 5.184H108.601L102.601 19.032C102.201 19.992 101.753 20.752 101.257 21.312C100.777 21.872 100.233 22.264 99.6248 22.488C99.0328 22.712 98.3768 22.824 97.6568 22.824ZM100.297 18.456L94.5128 5.184H97.6328L102.337 16.248L100.297 18.456Z" fill="url(#paint0_linear_7_41)"/>
<defs>
<linearGradient id="paint0_linear_7_41" x1="-2" y1="9.5" x2="109" y2="9.5" gradientUnits="userSpaceOnUse">
<stop offset="0.52" stop-color="#E52E4D"/>
<stop offset="1" stop-color="#33CC95"/>
</linearGradient>
</defs>
</svg>
